<svg width="133" height="39" viewBox="0 0 133 39" fill="none" xmlns="http://www.w3.org/2000/svg">
<path d="M13 14C13 16.3333 12.6111 17.5 9.5 17.5C6.38889 17.5 6 16.3333 6 14C6 11.6667 6.4375 10.5 9.5 10.5C12.5625 10.5 13 11.6667 13 14Z" fill="#1ED0D0" stroke="#1ED0D0" stroke-width="1.5" stroke-linecap="round" stroke-linejoin="round"/>
<path d="M13 25C13 27.3333 12.6111 28.5 9.5 28.5C6.38889 28.5 6 27.3333 6 25C6 22.6667 6.4375 21.5 9.5 21.5C12.5625 21.5 13 22.6667 13 25Z" fill="#1ED0D0" stroke="#1ED0D0" stroke-width="1.5" stroke-linecap="round" stroke-linejoin="round"/>
<path d="M24 25C24 27.3333 23.6111 28.5 20.5 28.5C17.3889 28.5 17 27.3333 17 25C17 22.6667 17.4375 21.5 20.5 21.5C23.5625 21.5 24 22.6667 24 25Z" fill="#1ED0D0" stroke="#1ED0D0" stroke-width="1.5" stroke-linecap="round" stroke-linejoin="round"/>
<path d="M35.876 30V9.84H39.404V30H35.876ZM45.9 30V20.984C45.9 20.1067 45.676 19.444 45.228 18.996C44.78 18.548 44.1267 18.324 43.268 18.324C42.5213 18.324 41.8493 18.492 41.252 18.828C40.6733 19.164 40.216 19.6307 39.88 20.228C39.5627 20.8253 39.404 21.516 39.404 22.3L39.04 18.884C39.5253 17.8387 40.2347 17.008 41.168 16.392C42.1013 15.7573 43.2213 15.44 44.528 15.44C46.0773 15.44 47.2813 15.8787 48.14 16.756C49.0173 17.6333 49.456 18.8 49.456 20.256V30H45.9ZM62.2111 30C62.1178 29.6267 62.0431 29.216 61.9871 28.768C61.9498 28.32 61.9311 27.7787 61.9311 27.144H61.8191V20.368C61.8191 19.6213 61.6044 19.0613 61.1751 18.688C60.7644 18.296 60.1298 18.1 59.2711 18.1C58.4311 18.1 57.7591 18.2587 57.2551 18.576C56.7698 18.8747 56.4711 19.3133 56.3591 19.892H52.9711C53.1204 18.5667 53.7551 17.4933 54.8751 16.672C55.9951 15.8507 57.4978 15.44 59.3831 15.44C61.3431 15.44 62.8271 15.888 63.8351 16.784C64.8431 17.6613 65.3471 18.9587 65.3471 20.676V27.144C65.3471 27.592 65.3751 28.0493 65.4311 28.516C65.5058 28.9827 65.6084 29.4773 65.7391 30H62.2111ZM57.2551 30.28C55.8178 30.28 54.6698 29.9253 53.8111 29.216C52.9711 28.488 52.5511 27.5173 52.5511 26.304C52.5511 24.9973 53.0271 23.9613 53.9791 23.196C54.9311 22.4307 56.2751 21.9173 58.0111 21.656L62.4631 20.984V23.224L58.5991 23.812C57.7591 23.9427 57.1244 24.176 56.6951 24.512C56.2844 24.848 56.0791 25.3147 56.0791 25.912C56.0791 26.4533 56.2751 26.8733 56.6671 27.172C57.0591 27.452 57.6004 27.592 58.2911 27.592C59.2991 27.592 60.1391 27.34 60.8111 26.836C61.4831 26.332 61.8191 25.716 61.8191 24.988L62.2111 27.144C61.8378 28.1707 61.2218 28.9547 60.3631 29.496C59.5231 30.0187 58.4871 30.28 57.2551 30.28ZM72.6361 30L66.9241 15.72H70.7321L75.2961 28.852H73.4201L77.9841 15.72H81.6801L75.9401 30H72.6361ZM90.2336 30.28C88.7216 30.28 87.3963 29.9627 86.2576 29.328C85.1376 28.6933 84.2603 27.816 83.6256 26.696C83.0096 25.576 82.7016 24.288 82.7016 22.832C82.7016 21.376 83.0096 20.0973 83.6256 18.996C84.2603 17.876 85.1376 17.008 86.2576 16.392C87.3776 15.7573 88.6843 15.44 90.1776 15.44C91.5963 15.44 92.8283 15.7387 93.8736 16.336C94.919 16.9147 95.731 17.736 96.3096 18.8C96.8883 19.864 97.1776 21.1053 97.1776 22.524C97.1776 22.7853 97.1683 23.028 97.1496 23.252C97.131 23.476 97.103 23.7 97.0656 23.924H84.8856V21.46H94.3496L93.6216 22.132C93.6216 20.788 93.3136 19.78 92.6976 19.108C92.0816 18.436 91.223 18.1 90.1216 18.1C88.927 18.1 87.975 18.5107 87.2656 19.332C86.575 20.1533 86.2296 21.3387 86.2296 22.888C86.2296 24.4187 86.575 25.5947 87.2656 26.416C87.975 27.2187 88.9736 27.62 90.2616 27.62C91.0083 27.62 91.6616 27.48 92.2216 27.2C92.7816 26.92 93.1923 26.4907 93.4536 25.912H96.7856C96.319 27.256 95.5256 28.32 94.4056 29.104C93.3043 29.888 91.9136 30.28 90.2336 30.28ZM100.378 30V15.72H103.822V19.08H103.906V30H100.378ZM110.402 30V20.984C110.402 20.1067 110.178 19.444 109.73 18.996C109.282 18.548 108.628 18.324 107.77 18.324C107.023 18.324 106.351 18.492 105.754 18.828C105.175 19.164 104.718 19.6307 104.382 20.228C104.064 20.8253 103.906 21.516 103.906 22.3L103.542 18.884C104.027 17.8387 104.736 17.008 105.67 16.392C106.603 15.7573 107.723 15.44 109.03 15.44C110.579 15.44 111.783 15.8787 112.642 16.756C113.519 17.6333 113.958 18.8 113.958 20.256V30H110.402ZM118.737 30V14.404C118.737 12.836 119.167 11.6413 120.025 10.82C120.903 9.98 122.209 9.56 123.945 9.56C124.337 9.56 124.664 9.57867 124.925 9.616C125.187 9.65333 125.439 9.70933 125.681 9.784V12.724C125.551 12.668 125.383 12.6307 125.177 12.612C124.972 12.5747 124.739 12.556 124.477 12.556C123.731 12.556 123.171 12.7427 122.797 13.116C122.443 13.4707 122.265 13.9933 122.265 14.684V30H118.737ZM127.893 30V15.72H131.449V30H127.893ZM116.161 18.66V15.72H128.985V18.66H116.161ZM127.837 13.564V9.84H131.505V13.564H127.837Z" fill="#103360"/>
</svg>
